<svg xmlns="http://www.w3.org/2000/svg" xmlns:xlink="http://www.w3.org/1999/xlink" width="500" zoomAndPan="magnify" viewBox="0 0 375 374.999991" height="500" preserveAspectRatio="xMidYMid meet" version="1.0"><defs><g/><clipPath id="06a86faa6a"><path d="M 94.023438 112.019531 L 280.773438 112.019531 L 280.773438 262.769531 L 94.023438 262.769531 Z M 94.023438 112.019531 " clip-rule="nonzero"/></clipPath><clipPath id="eb8a65da66"><path d="M 235.445312 100.804688 L 281 100.804688 L 281 146.554688 L 235.445312 146.554688 Z M 235.445312 100.804688 " clip-rule="nonzero"/></clipPath><clipPath id="c834c2217e"><path d="M 113 150.417969 L 262 150.417969 L 262 152.667969 L 113 152.667969 Z M 113 150.417969 " clip-rule="nonzero"/></clipPath><clipPath id="b8b672f7c1"><path d="M 113 163.199219 L 262 163.199219 L 262 165.449219 L 113 165.449219 Z M 113 163.199219 " clip-rule="nonzero"/></clipPath><clipPath id="81b4cf8baf"><path d="M 113 176.136719 L 262 176.136719 L 262 178.386719 L 113 178.386719 Z M 113 176.136719 " clip-rule="nonzero"/></clipPath><clipPath id="4e27496ae2"><path d="M 113 189.074219 L 262 189.074219 L 262 191.324219 L 113 191.324219 Z M 113 189.074219 " clip-rule="nonzero"/></clipPath><clipPath id="a36e7138a2"><path d="M 73 223 L 107 223 L 107 283.289062 L 73 283.289062 Z M 73 223 " clip-rule="nonzero"/></clipPath><clipPath id="2dad13a4e4"><path d="M 116 226 L 130.914062 226 L 130.914062 237 L 116 237 Z M 116 226 " clip-rule="nonzero"/></clipPath><clipPath id="b4784c6407"><path d="M 63 170.789062 L 110 170.789062 L 110 235 L 63 235 Z M 63 170.789062 " clip-rule="nonzero"/></clipPath></defs><g clip-path="url(#06a86faa6a)"><path fill="#1a2e38" d="M 228.925781 112.027344 L 146.070312 112.027344 C 117.320312 112.027344 94.023438 135.320312 94.023438 164.074219 C 94.023438 165.046875 94.023438 262.96875 94.023438 262.96875 C 124.085938 232.910156 164.839844 216.082031 207.351562 216.121094 C 219.765625 216.121094 228.925781 216.160156 228.925781 216.160156 C 257.679688 216.160156 280.972656 192.863281 280.972656 164.113281 C 280.972656 135.320312 257.679688 112.027344 228.925781 112.027344 Z M 228.925781 112.027344 " fill-opacity="1" fill-rule="nonzero"/></g><g clip-path="url(#eb8a65da66)"><path fill="#ff0000" d="M 280.972656 123.570312 C 280.972656 124.316406 280.9375 125.058594 280.863281 125.800781 C 280.789062 126.542969 280.679688 127.277344 280.535156 128.011719 C 280.390625 128.742188 280.207031 129.464844 279.992188 130.175781 C 279.777344 130.890625 279.523438 131.589844 279.238281 132.28125 C 278.953125 132.96875 278.636719 133.640625 278.285156 134.300781 C 277.933594 134.957031 277.550781 135.597656 277.136719 136.214844 C 276.722656 136.835938 276.277344 137.433594 275.804688 138.011719 C 275.332031 138.585938 274.832031 139.136719 274.304688 139.664062 C 273.777344 140.191406 273.226562 140.691406 272.648438 141.164062 C 272.074219 141.640625 271.476562 142.082031 270.855469 142.496094 C 270.234375 142.910156 269.597656 143.292969 268.941406 143.644531 C 268.28125 143.996094 267.609375 144.316406 266.921875 144.601562 C 266.230469 144.886719 265.53125 145.136719 264.816406 145.351562 C 264.101562 145.570312 263.382812 145.75 262.648438 145.894531 C 261.917969 146.039062 261.183594 146.148438 260.441406 146.222656 C 259.699219 146.296875 258.953125 146.332031 258.207031 146.332031 C 257.464844 146.332031 256.71875 146.296875 255.976562 146.222656 C 255.234375 146.148438 254.5 146.039062 253.769531 145.894531 C 253.035156 145.75 252.3125 145.570312 251.601562 145.351562 C 250.886719 145.136719 250.1875 144.886719 249.496094 144.601562 C 248.808594 144.316406 248.136719 143.996094 247.476562 143.644531 C 246.820312 143.292969 246.183594 142.910156 245.5625 142.496094 C 244.941406 142.082031 244.34375 141.640625 243.769531 141.164062 C 243.191406 140.691406 242.640625 140.191406 242.113281 139.664062 C 241.585938 139.136719 241.085938 138.585938 240.613281 138.011719 C 240.140625 137.433594 239.695312 136.835938 239.28125 136.214844 C 238.867188 135.597656 238.484375 134.957031 238.132812 134.300781 C 237.78125 133.640625 237.464844 132.96875 237.179688 132.28125 C 236.894531 131.589844 236.640625 130.890625 236.425781 130.175781 C 236.210938 129.464844 236.027344 128.742188 235.882812 128.011719 C 235.738281 127.277344 235.628906 126.542969 235.554688 125.800781 C 235.480469 125.058594 235.445312 124.316406 235.445312 123.570312 C 235.445312 122.824219 235.480469 122.078125 235.554688 121.339844 C 235.628906 120.597656 235.738281 119.859375 235.882812 119.128906 C 236.027344 118.398438 236.210938 117.675781 236.425781 116.960938 C 236.640625 116.246094 236.894531 115.546875 237.179688 114.859375 C 237.464844 114.167969 237.78125 113.496094 238.132812 112.839844 C 238.484375 112.179688 238.867188 111.542969 239.28125 110.921875 C 239.695312 110.300781 240.140625 109.703125 240.613281 109.128906 C 241.085938 108.550781 241.585938 108 242.113281 107.472656 C 242.640625 106.945312 243.191406 106.445312 243.769531 105.972656 C 244.34375 105.5 244.941406 105.054688 245.5625 104.640625 C 246.183594 104.226562 246.820312 103.84375 247.476562 103.492188 C 248.136719 103.140625 248.808594 102.824219 249.496094 102.539062 C 250.1875 102.253906 250.886719 102.003906 251.601562 101.785156 C 252.3125 101.570312 253.035156 101.386719 253.769531 101.242188 C 254.5 101.097656 255.234375 100.988281 255.976562 100.914062 C 256.71875 100.84375 257.464844 100.804688 258.207031 100.804688 C 258.953125 100.804688 259.699219 100.84375 260.441406 100.914062 C 261.183594 100.988281 261.917969 101.097656 262.648438 101.242188 C 263.382812 101.386719 264.101562 101.570312 264.816406 101.785156 C 265.53125 102.003906 266.230469 102.253906 266.921875 102.539062 C 267.609375 102.824219 268.28125 103.140625 268.941406 103.492188 C 269.597656 103.84375 270.234375 104.226562 270.855469 104.640625 C 271.476562 105.054688 272.074219 105.5 272.648438 105.972656 C 273.226562 106.445312 273.777344 106.945312 274.304688 107.472656 C 274.832031 108 275.332031 108.550781 275.804688 109.128906 C 276.277344 109.703125 276.722656 110.300781 277.136719 110.921875 C 277.550781 111.542969 277.933594 112.179688 278.285156 112.839844 C 278.636719 113.496094 278.953125 114.167969 279.238281 114.859375 C 279.523438 115.546875 279.777344 116.246094 279.992188 116.960938 C 280.207031 117.675781 280.390625 118.398438 280.535156 119.128906 C 280.679688 119.859375 280.789062 120.597656 280.863281 121.339844 C 280.9375 122.078125 280.972656 122.824219 280.972656 123.570312 Z M 280.972656 123.570312 " fill-opacity="1" fill-rule="nonzero"/></g><g fill="#ffffff" fill-opacity="1"><g transform="translate(245.183499, 131.445687)"><g><path d="M 6.21875 0.21875 C 4.695312 0.21875 3.488281 -0.125 2.59375 -0.8125 C 1.695312 -1.5 1.113281 -2.445312 0.84375 -3.65625 L 2.21875 -4.28125 L 2.46875 -4.25 C 2.738281 -3.3125 3.160156 -2.609375 3.734375 -2.140625 C 4.304688 -1.671875 5.132812 -1.4375 6.21875 -1.4375 C 7.332031 -1.4375 8.175781 -1.691406 8.75 -2.203125 C 9.332031 -2.710938 9.625 -3.460938 9.625 -4.453125 C 9.625 -5.410156 9.328125 -6.144531 8.734375 -6.65625 C 8.148438 -7.164062 7.222656 -7.421875 5.953125 -7.421875 L 4.25 -7.421875 L 4.25 -8.953125 L 5.765625 -8.953125 C 6.753906 -8.953125 7.539062 -9.195312 8.125 -9.6875 C 8.707031 -10.175781 9 -10.867188 9 -11.765625 C 9 -12.617188 8.742188 -13.253906 8.234375 -13.671875 C 7.734375 -14.097656 7.03125 -14.3125 6.125 -14.3125 C 4.539062 -14.3125 3.410156 -13.679688 2.734375 -12.421875 L 2.5 -12.390625 L 1.46875 -13.515625 C 1.882812 -14.234375 2.488281 -14.816406 3.28125 -15.265625 C 4.082031 -15.710938 5.03125 -15.9375 6.125 -15.9375 C 7.125 -15.9375 7.976562 -15.78125 8.6875 -15.46875 C 9.394531 -15.15625 9.929688 -14.703125 10.296875 -14.109375 C 10.660156 -13.523438 10.84375 -12.828125 10.84375 -12.015625 C 10.84375 -11.234375 10.617188 -10.550781 10.171875 -9.96875 C 9.722656 -9.382812 9.128906 -8.925781 8.390625 -8.59375 L 8.390625 -8.375 C 9.429688 -8.125 10.210938 -7.65625 10.734375 -6.96875 C 11.253906 -6.28125 11.515625 -5.441406 11.515625 -4.453125 C 11.515625 -2.960938 11.070312 -1.8125 10.1875 -1 C 9.300781 -0.1875 7.976562 0.21875 6.21875 0.21875 Z M 6.21875 0.21875 "/></g></g></g><g fill="#ffffff" fill-opacity="1"><g transform="translate(257.942951, 131.445687)"><g><path d="M 6.640625 0.21875 C 5.492188 0.21875 4.515625 0.0351562 3.703125 -0.328125 C 2.890625 -0.691406 2.269531 -1.21875 1.84375 -1.90625 C 1.425781 -2.59375 1.21875 -3.398438 1.21875 -4.328125 C 1.21875 -5.328125 1.460938 -6.160156 1.953125 -6.828125 C 2.453125 -7.492188 3.179688 -8.015625 4.140625 -8.390625 L 4.140625 -8.609375 C 3.460938 -9.023438 2.9375 -9.5 2.5625 -10.03125 C 2.195312 -10.570312 2.015625 -11.210938 2.015625 -11.953125 C 2.015625 -12.753906 2.203125 -13.453125 2.578125 -14.046875 C 2.960938 -14.648438 3.503906 -15.113281 4.203125 -15.4375 C 4.898438 -15.769531 5.710938 -15.9375 6.640625 -15.9375 C 7.566406 -15.9375 8.378906 -15.769531 9.078125 -15.4375 C 9.773438 -15.113281 10.3125 -14.648438 10.6875 -14.046875 C 11.070312 -13.453125 11.265625 -12.753906 11.265625 -11.953125 C 11.265625 -11.210938 11.078125 -10.570312 10.703125 -10.03125 C 10.335938 -9.5 9.8125 -9.023438 9.125 -8.609375 L 9.125 -8.390625 C 10.101562 -8.015625 10.835938 -7.492188 11.328125 -6.828125 C 11.828125 -6.160156 12.078125 -5.328125 12.078125 -4.328125 C 12.078125 -3.390625 11.863281 -2.578125 11.4375 -1.890625 C 11.019531 -1.210938 10.398438 -0.691406 9.578125 -0.328125 C 8.765625 0.0351562 7.785156 0.21875 6.640625 0.21875 Z M 6.640625 -9.109375 C 7.203125 -9.109375 7.691406 -9.210938 8.109375 -9.421875 C 8.535156 -9.640625 8.867188 -9.945312 9.109375 -10.34375 C 9.347656 -10.738281 9.46875 -11.203125 9.46875 -11.734375 C 9.46875 -12.285156 9.347656 -12.757812 9.109375 -13.15625 C 8.867188 -13.5625 8.535156 -13.867188 8.109375 -14.078125 C 7.679688 -14.296875 7.191406 -14.40625 6.640625 -14.40625 C 5.773438 -14.40625 5.085938 -14.164062 4.578125 -13.6875 C 4.066406 -13.21875 3.8125 -12.566406 3.8125 -11.734375 C 3.8125 -10.921875 4.066406 -10.28125 4.578125 -9.8125 C 5.085938 -9.34375 5.773438 -9.109375 6.640625 -9.109375 Z M 6.640625 -1.390625 C 7.773438 -1.390625 8.640625 -1.660156 9.234375 -2.203125 C 9.835938 -2.742188 10.140625 -3.492188 10.140625 -4.453125 C 10.140625 -5.398438 9.835938 -6.144531 9.234375 -6.6875 C 8.640625 -7.226562 7.773438 -7.5 6.640625 -7.5 C 5.503906 -7.5 4.632812 -7.226562 4.03125 -6.6875 C 3.4375 -6.144531 3.140625 -5.398438 3.140625 -4.453125 C 3.140625 -3.492188 3.4375 -2.742188 4.03125 -2.203125 C 4.632812 -1.660156 5.503906 -1.390625 6.640625 -1.390625 Z M 6.640625 -1.390625 "/></g></g></g><g clip-path="url(#c834c2217e)"><path fill="#808080" d="M 261.417969 151.636719 C 261.417969 152.308594 260.871094 152.855469 260.199219 152.855469 L 114.800781 152.855469 C 114.128906 152.855469 113.582031 152.308594 113.582031 151.636719 C 113.582031 150.964844 114.128906 150.417969 114.800781 150.417969 L 260.195312 150.417969 C 260.871094 150.417969 261.417969 150.964844 261.417969 151.636719 Z M 261.417969 151.636719 " fill-opacity="1" fill-rule="nonzero"/></g><g clip-path="url(#b8b672f7c1)"><path fill="#808080" d="M 261.417969 164.417969 C 261.417969 165.089844 260.871094 165.636719 260.199219 165.636719 L 114.800781 165.636719 C 114.128906 165.636719 113.582031 165.089844 113.582031 164.417969 C 113.582031 163.742188 114.128906 163.199219 114.800781 163.199219 L 260.195312 163.199219 C 260.871094 163.199219 261.417969 163.742188 261.417969 164.417969 Z M 261.417969 164.417969 " fill-opacity="1" fill-rule="nonzero"/></g><g clip-path="url(#81b4cf8baf)"><path fill="#808080" d="M 261.417969 177.355469 C 261.417969 178.027344 260.871094 178.574219 260.199219 178.574219 L 114.800781 178.574219 C 114.128906 178.574219 113.582031 178.027344 113.582031 177.355469 C 113.582031 176.679688 114.128906 176.136719 114.800781 176.136719 L 260.195312 176.136719 C 260.871094 176.136719 261.417969 176.679688 261.417969 177.355469 Z M 261.417969 177.355469 " fill-opacity="1" fill-rule="nonzero"/></g><g clip-path="url(#4e27496ae2)"><path fill="#808080" d="M 261.417969 190.292969 C 261.417969 190.964844 260.871094 191.511719 260.199219 191.511719 L 114.800781 191.511719 C 114.128906 191.511719 113.582031 190.964844 113.582031 190.292969 C 113.582031 189.617188 114.128906 189.074219 114.800781 189.074219 L 260.195312 189.074219 C 260.871094 189.074219 261.417969 189.617188 261.417969 190.292969 Z M 261.417969 190.292969 " fill-opacity="1" fill-rule="nonzero"/></g><g clip-path="url(#a36e7138a2)"><path fill="#000000" d="M 79.820312 237.835938 C 79.898438 237.65625 79.972656 237.476562 80.039062 237.289062 C 80.542969 235.882812 80.53125 234.359375 80.574219 232.867188 C 80.613281 231.378906 80.730469 229.832031 81.441406 228.523438 C 82.382812 226.789062 83.851562 226.582031 85.597656 226.277344 C 87.691406 225.914062 89.78125 225.269531 91.835938 224.71875 C 95.871094 223.636719 100.792969 223.261719 103.28125 227.289062 C 104.171875 228.734375 104.609375 230.410156 104.949219 232.070312 C 105.988281 237.152344 106.230469 242.378906 105.695312 247.535156 C 105.289062 251.488281 107.394531 256.105469 105.402344 259.832031 C 104.589844 261.355469 103.042969 262.609375 102.996094 264.335938 C 102.175781 263.199219 102.585938 261.636719 102.949219 260.285156 C 103.308594 258.933594 103.5 257.261719 102.4375 256.351562 C 102.015625 257.300781 101.269531 258.421875 101.046875 259.425781 C 100.859375 260.265625 101.070312 261.324219 101.105469 262.1875 C 100.9375 262.625 100.671875 263.320312 100.453125 263.890625 C 99.425781 264.816406 98.484375 265.664062 97.636719 266.429688 C 96.664062 267.914062 95.828125 269.363281 95.355469 271.039062 C 94.773438 270.539062 94.074219 269.332031 94.378906 268.511719 C 94.144531 269.128906 93.824219 269.707031 93.5 270.285156 C 92.433594 272.199219 91.300781 274.160156 89.507812 275.476562 C 87.84375 276.699219 85.882812 277.441406 84 278.242188 C 81.398438 279.347656 78.683594 280.765625 77.414062 283.285156 C 76.804688 280.050781 77.058594 276.964844 78.964844 274.15625 C 79.785156 272.949219 80.542969 272.011719 81.183594 270.703125 C 81.582031 269.886719 81.972656 269.140625 82.1875 268.246094 C 82.238281 268.027344 82.453125 265.792969 82.457031 265.792969 C 80.308594 266.464844 78.597656 268.375 78.175781 270.582031 C 77.9375 268.546875 78.949219 266.589844 80.03125 264.847656 C 80.429688 264.199219 83.097656 260.394531 82.253906 259.796875 C 81.496094 259.261719 79.632812 261.78125 79.136719 262.164062 C 78.265625 262.835938 77.265625 263.324219 76.503906 264.128906 C 75.25 265.453125 74.886719 267.351562 74.578125 269.144531 C 73.527344 267.636719 73.550781 265.597656 74.121094 263.851562 C 74.695312 262.105469 75.75 260.566406 76.6875 258.988281 C 76.929688 258.582031 79.066406 253.4375 78.671875 253.445312 C 77.070312 253.46875 75.542969 254.574219 75.019531 256.082031 C 74.464844 255.152344 74.851562 253.917969 75.542969 253.085938 C 76.234375 252.253906 77.179688 251.675781 77.953125 250.917969 C 78.277344 250.597656 79.917969 248.40625 78.988281 248.011719 C 78.734375 247.90625 76.976562 249.347656 76.523438 249.492188 C 76.085938 249.632812 73.824219 249.4375 73.722656 249.535156 C 74.640625 248.6875 75.53125 247.4375 75.667969 246.160156 C 75.796875 244.96875 75.722656 244.167969 76.34375 243.03125 C 77.347656 241.203125 78.957031 239.742188 79.820312 237.835938 Z M 79.820312 237.835938 " fill-opacity="1" fill-rule="nonzero"/></g><path fill="#000000" d="M 82.363281 245.042969 C 80.777344 243.015625 79.964844 240.507812 80.308594 237.648438 C 81.210938 230.132812 81.777344 222.503906 82.371094 214.867188 C 82.539062 212.679688 82.992188 210.578125 83.941406 208.578125 C 84.59375 207.203125 85.511719 206.101562 86.777344 205.234375 C 87.523438 204.71875 88.628906 204.464844 88.621094 203.203125 C 88.621094 203.070312 89.046875 202.8125 89.273438 202.8125 C 90.652344 202.820312 91.367188 201.933594 91.871094 200.863281 C 92.621094 199.273438 93.28125 197.640625 93.980469 196.023438 C 94.273438 195.34375 94.535156 194.648438 94.867188 193.988281 C 95.554688 192.617188 96.605469 191.601562 98.023438 190.980469 C 98.320312 190.847656 98.625 190.738281 98.914062 190.59375 C 100.976562 189.550781 102.78125 189.871094 104.558594 191.367188 C 106.167969 192.71875 108.316406 193.539062 109.078125 195.695312 C 109.3125 196.363281 109.367188 197.078125 109.40625 197.789062 C 109.457031 198.769531 109.476562 199.761719 109.257812 200.71875 C 108.980469 201.921875 108.363281 203.019531 108.074219 204.21875 C 107.804688 205.332031 108.261719 206.441406 107.824219 207.542969 C 107.453125 208.476562 106.648438 209.230469 105.6875 209.539062 C 106.128906 210.507812 107.199219 211.027344 107.832031 211.890625 C 108.84375 213.269531 108.535156 215.167969 108.660156 216.875 C 108.875 219.707031 110.863281 226.804688 114.871094 226.191406 C 115.675781 226.066406 116.402344 225.4375 117.207031 225.238281 C 118.554688 224.90625 120.074219 225.054688 121.453125 225.027344 C 122.332031 225.941406 122.449219 227.363281 122.195312 228.601562 C 122 229.574219 121.417969 230.53125 121.355469 231.5 C 121.277344 232.652344 121.738281 234.066406 121.910156 235.214844 C 122.585938 239.738281 122.578125 244.660156 124.03125 248.980469 C 124.648438 250.808594 124.777344 252.792969 124.449219 254.6875 C 124.285156 255.617188 124.015625 256.523438 123.632812 257.386719 C 123.390625 257.941406 122.273438 259.167969 122.257812 259.6875 C 122.3125 257.894531 122.289062 255.882812 121.015625 254.613281 C 121.050781 255.898438 120.957031 257.183594 120.742188 258.453125 C 119.546875 257.636719 118.257812 256.679688 117.984375 255.265625 C 117.828125 254.453125 118.015625 253.613281 118.027344 252.792969 C 118.039062 252.226562 118.351562 251.359375 118.253906 250.835938 C 118.074219 251.867188 116.964844 253.015625 116.515625 253.964844 C 116.050781 254.9375 115.851562 256.023438 115.949219 257.097656 C 115.101562 256.917969 114.683594 255.914062 114.746094 255.054688 C 114.808594 254.195312 115.203125 253.394531 115.375 252.550781 C 115.507812 251.894531 115.507812 251.207031 115.367188 250.550781 C 114.609375 251.050781 114.359375 252.039062 114.269531 252.941406 C 114.175781 253.847656 114.167969 254.804688 113.691406 255.578125 C 113 256.695312 111.527344 257.070312 110.207031 257.03125 C 111.101562 256.453125 112.109375 255.640625 111.96875 254.589844 C 111.191406 255.425781 110.101562 255.960938 108.96875 256.078125 C 109.765625 253.3125 109.753906 250.269531 108.636719 247.617188 C 108.300781 246.824219 107.871094 246.070312 107.539062 245.277344 C 106.789062 243.515625 106.355469 241.503906 106.210938 239.601562 C 105.945312 240.785156 105.859375 242.101562 105.535156 243.253906 C 105.21875 244.386719 104.265625 245.429688 103.617188 246.398438 C 102.566406 247.980469 101.714844 248.242188 99.933594 248.90625 C 96.871094 250.050781 93.871094 250.734375 90.613281 249.960938 C 87.199219 249.152344 84.238281 247.433594 82.363281 245.042969 Z M 82.363281 245.042969 " fill-opacity="1" fill-rule="nonzero"/><g clip-path="url(#2dad13a4e4)"><path fill="#000000" d="M 125.515625 226.117188 C 125.652344 226.105469 125.753906 226.136719 125.824219 226.179688 L 125.84375 226.175781 C 125.847656 226.171875 125.855469 226.171875 125.859375 226.171875 C 125.890625 226.160156 125.941406 226.144531 126.003906 226.152344 L 126.179688 226.171875 C 126.460938 226.203125 126.75 226.234375 127.035156 226.273438 C 127.097656 226.285156 127.148438 226.300781 127.191406 226.324219 L 127.25 226.324219 C 127.269531 226.324219 127.296875 226.320312 127.328125 226.316406 C 127.417969 226.308594 127.535156 226.296875 127.652344 226.339844 C 127.820312 226.40625 127.976562 226.480469 128.132812 226.554688 C 128.742188 226.851562 129.292969 227.410156 129.710938 227.9375 C 129.695312 227.917969 129.472656 227.925781 129.433594 227.921875 C 129.324219 227.90625 129.21875 227.875 129.113281 227.84375 C 128.898438 227.773438 128.695312 227.671875 128.488281 227.585938 C 128.285156 227.5 128.078125 227.417969 127.859375 227.382812 C 127.644531 227.347656 127.433594 227.378906 127.222656 227.328125 C 127.199219 227.324219 127.179688 227.320312 127.160156 227.316406 L 126.945312 227.28125 L 126.949219 227.246094 C 126.820312 227.246094 126.699219 227.230469 126.582031 227.210938 L 126.492188 227.199219 C 126.476562 227.199219 126.457031 227.195312 126.445312 227.195312 C 126.34375 227.324219 126.183594 227.378906 126.027344 227.339844 C 125.984375 227.328125 125.945312 227.3125 125.910156 227.289062 C 125.867188 227.328125 125.816406 227.359375 125.757812 227.371094 C 125.625 227.402344 125.496094 227.378906 125.394531 227.355469 C 125.371094 227.351562 125.351562 227.347656 125.332031 227.34375 C 125.257812 227.332031 125.191406 227.3125 125.121094 227.296875 C 125.015625 227.265625 124.914062 227.242188 124.835938 227.246094 C 124.753906 227.25 124.671875 227.261719 124.59375 227.273438 C 124.617188 227.289062 124.644531 227.304688 124.667969 227.320312 C 124.726562 227.355469 124.777344 227.386719 124.832031 227.414062 C 124.917969 227.460938 125 227.507812 125.082031 227.554688 C 125.285156 227.671875 125.476562 227.78125 125.679688 227.851562 C 125.800781 227.894531 125.945312 227.90625 126.097656 227.914062 C 126.1875 227.921875 126.277344 227.925781 126.367188 227.9375 C 126.632812 227.972656 126.800781 228.0625 126.902344 228.167969 L 126.910156 228.152344 L 127.246094 228.3125 C 127.339844 228.355469 127.441406 228.40625 127.542969 228.453125 C 127.585938 228.472656 127.625 228.492188 127.660156 228.515625 C 127.734375 228.550781 127.800781 228.585938 127.863281 228.605469 C 127.910156 228.621094 127.976562 228.625 128.042969 228.628906 C 128.097656 228.632812 128.15625 228.636719 128.214844 228.648438 C 128.476562 228.6875 128.652344 228.765625 128.761719 228.898438 C 129.011719 228.824219 129.226562 228.878906 129.402344 229.054688 C 129.65625 229.316406 129.988281 229.488281 130.242188 229.757812 C 130.511719 230.039062 130.734375 230.367188 130.894531 230.726562 C 130.859375 230.644531 130.511719 230.546875 130.425781 230.507812 C 130.257812 230.4375 130.089844 230.367188 129.917969 230.300781 C 129.75 230.234375 129.566406 230.191406 129.402344 230.117188 C 129.292969 230.070312 129.191406 229.980469 129.066406 230.023438 C 128.945312 230.070312 128.828125 230.039062 128.757812 230.023438 C 128.746094 230.019531 128.738281 230.019531 128.734375 230.019531 L 128.519531 229.992188 L 128.523438 229.933594 C 128.425781 229.941406 128.320312 229.917969 128.199219 229.863281 C 128.121094 229.828125 128.050781 229.792969 127.980469 229.753906 C 127.898438 229.710938 127.824219 229.671875 127.746094 229.640625 C 127.558594 229.566406 127.347656 229.546875 127.066406 229.582031 C 126.902344 229.601562 126.734375 229.515625 126.625 229.429688 C 126.515625 229.496094 126.398438 229.527344 126.28125 229.511719 C 126.257812 229.511719 126.234375 229.507812 126.214844 229.5 C 126.34375 229.585938 126.480469 229.660156 126.621094 229.730469 L 126.628906 229.734375 C 126.667969 229.75 126.734375 229.78125 126.761719 229.785156 C 127.171875 229.722656 127.394531 230.011719 127.464844 230.105469 C 127.515625 230.175781 127.550781 230.25 127.5625 230.328125 C 127.753906 230.417969 127.984375 230.578125 128.007812 230.929688 C 128.035156 231.285156 128.144531 231.535156 128.355469 231.714844 C 128.429688 231.777344 128.492188 231.859375 128.546875 231.976562 C 128.546875 231.980469 128.550781 231.984375 128.550781 231.988281 L 128.578125 231.957031 L 128.742188 232.164062 C 128.75 232.175781 128.773438 232.199219 128.792969 232.21875 C 128.867188 232.292969 128.972656 232.398438 129 232.546875 C 129.0625 232.835938 129.316406 233.097656 129.457031 233.355469 C 129.660156 233.726562 129.734375 234.164062 129.734375 234.585938 C 129.734375 234.640625 129.734375 234.699219 129.710938 234.75 C 129.683594 234.800781 129.628906 234.84375 129.574219 234.835938 C 129.488281 234.820312 129.460938 234.71875 129.441406 234.636719 C 129.328125 234.203125 129.03125 234.050781 128.703125 233.800781 C 128.578125 233.710938 128.5 233.636719 128.429688 233.503906 C 128.367188 233.382812 128.308594 233.214844 128.160156 233.171875 C 127.992188 233.117188 127.882812 232.976562 127.886719 232.816406 C 127.734375 232.753906 127.632812 232.613281 127.589844 232.550781 C 127.519531 232.453125 127.46875 232.351562 127.417969 232.253906 L 127.394531 232.207031 C 127.382812 232.179688 127.367188 232.152344 127.355469 232.121094 C 127.242188 231.894531 127.191406 231.820312 127.039062 231.820312 C 126.953125 231.820312 126.839844 231.777344 126.777344 231.683594 C 126.769531 231.671875 126.761719 231.660156 126.753906 231.648438 C 126.71875 231.59375 126.671875 231.527344 126.648438 231.445312 C 126.605469 231.445312 126.566406 231.441406 126.53125 231.433594 C 126.371094 231.402344 126.148438 231.285156 126.003906 230.90625 C 125.960938 230.789062 125.886719 230.703125 125.84375 230.675781 C 125.5625 230.523438 125.265625 230.367188 124.953125 230.230469 C 124.957031 230.242188 124.957031 230.253906 124.957031 230.261719 C 124.957031 230.730469 125.160156 231.070312 125.589844 231.335938 C 125.75 231.429688 125.898438 231.527344 126.03125 231.652344 C 126.1875 231.804688 126.265625 231.980469 126.257812 232.171875 C 126.253906 232.207031 126.25 232.242188 126.246094 232.277344 C 126.40625 232.347656 126.460938 232.523438 126.484375 232.59375 C 126.507812 232.671875 126.511719 232.746094 126.507812 232.8125 L 126.503906 232.867188 C 126.503906 232.878906 126.503906 232.890625 126.503906 232.902344 C 126.503906 232.925781 126.503906 232.949219 126.503906 232.972656 C 126.503906 232.988281 126.503906 233.007812 126.5 233.023438 C 126.5 233.039062 126.5 233.054688 126.5 233.070312 C 126.5 233.109375 126.496094 233.152344 126.503906 233.1875 C 126.519531 233.257812 126.527344 233.320312 126.523438 233.382812 C 126.523438 233.425781 126.515625 233.472656 126.5 233.519531 C 126.597656 233.621094 126.621094 233.761719 126.628906 233.835938 C 126.636719 233.929688 126.636719 234.015625 126.636719 234.101562 C 126.636719 234.148438 126.636719 234.195312 126.636719 234.238281 C 126.636719 234.265625 126.640625 234.292969 126.640625 234.320312 C 126.65625 234.449219 126.625 234.550781 126.617188 234.675781 C 126.605469 234.824219 126.628906 234.972656 126.605469 235.125 C 126.558594 235.421875 126.445312 235.707031 126.265625 235.949219 C 126.230469 235.992188 126.191406 236.039062 126.136719 236.042969 C 126.089844 236.046875 126.042969 236.011719 126.019531 235.96875 C 125.996094 235.929688 125.984375 235.878906 125.976562 235.832031 C 125.886719 235.332031 125.84375 234.796875 125.667969 234.316406 C 125.644531 234.257812 125.621094 234.195312 125.601562 234.132812 C 125.578125 234.0625 125.5625 233.996094 125.550781 233.941406 C 125.546875 233.917969 125.542969 233.898438 125.535156 233.878906 L 125.480469 233.664062 L 125.539062 233.648438 C 125.519531 233.609375 125.507812 233.574219 125.5 233.539062 C 125.492188 233.523438 125.460938 233.480469 125.4375 233.453125 C 125.417969 233.429688 125.394531 233.398438 125.371094 233.371094 C 125.316406 233.289062 125.261719 233.210938 125.21875 233.148438 L 125.042969 232.902344 L 125.09375 232.871094 C 124.960938 232.789062 124.765625 232.628906 124.769531 232.441406 C 124.769531 232.421875 124.773438 232.40625 124.777344 232.390625 C 124.78125 232.375 124.78125 232.359375 124.785156 232.347656 C 124.785156 232.285156 124.75 232.234375 124.683594 232.140625 C 124.417969 231.765625 124.050781 231.492188 123.730469 231.273438 C 123.613281 231.195312 123.515625 231.105469 123.410156 231.011719 C 123.359375 230.96875 123.308594 230.921875 123.257812 230.878906 L 123.019531 230.675781 C 122.988281 230.660156 122.957031 230.640625 122.929688 230.621094 C 122.800781 230.53125 122.761719 230.429688 122.753906 230.363281 C 122.746094 230.3125 122.742188 230.285156 122.628906 230.261719 C 122.152344 230.171875 121.667969 230.082031 121.199219 229.996094 C 121.074219 229.972656 120.949219 229.949219 120.824219 229.925781 L 120.722656 229.929688 C 120.65625 229.933594 120.589844 229.9375 120.523438 229.941406 C 120.378906 229.945312 120.226562 229.953125 120.082031 229.964844 C 119.964844 229.976562 119.847656 229.988281 119.730469 230.003906 C 119.714844 230.003906 119.699219 230.003906 119.683594 230.007812 C 119.738281 230.0625 119.785156 230.140625 119.828125 230.238281 C 119.871094 230.347656 119.90625 230.457031 119.9375 230.566406 C 119.960938 230.640625 119.980469 230.707031 120.003906 230.773438 C 120.175781 231.246094 120.484375 231.527344 120.949219 231.628906 C 120.96875 231.632812 120.984375 231.632812 121.003906 231.636719 C 121.085938 231.652344 121.183594 231.671875 121.277344 231.726562 C 121.367188 231.78125 121.480469 231.851562 121.550781 231.949219 L 121.558594 231.949219 C 121.886719 231.988281 122.117188 232.183594 122.25 232.523438 C 122.34375 232.765625 122.4375 232.808594 122.597656 232.800781 C 122.722656 232.796875 122.832031 232.835938 122.90625 232.910156 C 122.929688 232.933594 122.949219 232.960938 122.964844 232.988281 C 122.976562 232.988281 122.988281 232.988281 122.996094 232.988281 C 123.074219 232.992188 123.222656 233.023438 123.332031 233.21875 C 123.511719 233.542969 123.777344 233.695312 124.046875 233.929688 C 124.335938 234.1875 124.554688 234.523438 124.675781 234.890625 C 124.445312 234.9375 124.207031 234.875 123.988281 234.785156 C 123.710938 234.671875 123.445312 234.582031 123.164062 234.492188 C 123.058594 234.457031 122.957031 234.421875 122.855469 234.398438 C 122.621094 234.347656 122.492188 234.253906 122.429688 234.074219 C 122.363281 234.078125 122.289062 234.0625 122.207031 234.015625 C 122.085938 233.949219 121.96875 233.855469 121.84375 233.726562 C 121.632812 233.507812 121.476562 233.4375 121.273438 233.472656 C 120.988281 233.515625 120.753906 233.378906 120.648438 233.109375 C 120.570312 233.125 120.496094 233.125 120.421875 233.105469 C 120.257812 233.0625 120.128906 232.941406 120.019531 232.734375 C 119.847656 232.40625 119.601562 232.117188 119.242188 231.828125 C 119.207031 231.800781 119.171875 231.773438 119.136719 231.742188 C 118.988281 231.625 118.832031 231.5 118.695312 231.351562 C 118.59375 231.238281 118.53125 231.105469 118.488281 231.003906 C 118.476562 230.976562 118.460938 230.949219 118.453125 230.933594 L 118.417969 230.867188 L 118.425781 230.796875 C 118.429688 230.769531 118.433594 230.742188 118.4375 230.714844 C 118.269531 230.796875 118.050781 230.777344 117.910156 230.714844 C 117.671875 230.609375 117.507812 230.285156 117.464844 229.988281 C 117.390625 229.992188 117.308594 229.972656 117.226562 229.933594 C 117 229.828125 116.871094 229.625 116.839844 229.332031 C 116.808594 229.0625 116.789062 228.796875 116.773438 228.578125 C 116.765625 228.503906 116.761719 228.433594 116.757812 228.375 L 116.753906 228.363281 L 116.757812 228.324219 C 116.78125 227.691406 116.925781 227.34375 117.316406 226.992188 C 117.5625 226.773438 117.8125 226.574219 118.050781 226.386719 C 118.144531 226.316406 118.277344 226.273438 118.398438 226.277344 C 118.660156 226.292969 118.902344 226.441406 119.058594 226.660156 C 119.214844 226.4375 119.507812 226.425781 119.640625 226.421875 C 119.808594 226.414062 119.980469 226.425781 120.140625 226.4375 L 120.21875 226.441406 C 120.664062 226.46875 121.0625 226.4375 121.433594 226.335938 C 121.757812 226.25 122.097656 226.175781 122.445312 226.113281 C 122.59375 226.085938 122.765625 226.097656 122.925781 226.144531 C 123.011719 226.171875 123.089844 226.21875 123.152344 226.285156 C 123.222656 226.230469 123.316406 226.199219 123.445312 226.199219 L 123.460938 226.199219 C 123.613281 226.199219 123.769531 226.199219 123.929688 226.234375 C 124.21875 226.292969 124.507812 226.289062 124.824219 226.222656 C 125.011719 226.183594 125.261719 226.136719 125.511719 226.113281 Z M 125.515625 226.117188 " fill-opacity="1" fill-rule="nonzero"/></g><g clip-path="url(#b4784c6407)"><path fill="#000000" d="M 68.375 174.058594 C 68.003906 173.203125 67.628906 172.347656 66.949219 170.789062 C 70.226562 172.25 72.515625 173.429688 72.59375 176.75 C 72.613281 177.445312 73.050781 178.171875 73.425781 178.808594 C 74.175781 180.082031 74.984375 181.324219 75.785156 182.570312 C 79.886719 188.941406 84.105469 195.238281 88.300781 201.542969 C 93.097656 208.757812 97.90625 215.957031 102.671875 223.191406 C 104.359375 225.746094 106.042969 228.304688 107.691406 230.886719 C 108.160156 231.621094 110.449219 234.003906 108.8125 234.308594 C 107.472656 234.554688 106.390625 231.554688 105.851562 230.707031 C 101.65625 224.042969 97.289062 217.484375 92.910156 210.941406 C 88.164062 203.847656 83.378906 196.78125 78.535156 189.753906 C 76.820312 187.269531 75.101562 184.789062 73.351562 182.328125 C 72.566406 181.222656 71.820312 179.949219 70.859375 178.984375 C 69.324219 181.53125 70.425781 183.488281 72.582031 185.097656 C 70.417969 188.714844 69.679688 192.394531 70.210938 196.25 C 70.933594 201.511719 72.203125 206.570312 76.046875 210.625 C 76.996094 211.625 77.519531 213.027344 78.539062 214.757812 C 64.648438 206.507812 57.433594 188.949219 68.375 174.058594 Z M 68.375 174.058594 " fill-opacity="1" fill-rule="nonzero"/></g><path fill="#ffce2e" d="M 106.597656 199.894531 C 106.675781 200.5 106.597656 201.101562 106.195312 201.433594 C 105.964844 201.625 105.746094 201.699219 105.507812 201.675781 C 105.167969 201.644531 104.886719 201.410156 104.667969 201.058594 C 105.359375 200.640625 106.128906 200.679688 106.597656 199.894531 Z M 106.597656 199.894531 " fill-opacity="1" fill-rule="nonzero"/><path fill="#ffce2e" d="M 101.703125 198.816406 C 101.34375 199.535156 101.25 200.351562 101.808594 200.929688 C 102.105469 201.234375 102.402344 201.378906 102.742188 201.414062 C 103.1875 201.457031 103.585938 201.269531 103.917969 200.964844 C 103.242188 200.308594 102.175781 200.035156 101.703125 198.816406 Z M 101.703125 198.816406 " fill-opacity="1" fill-rule="nonzero"/></svg>